<svg id="Layer_1" data-name="Layer 1" xmlns="http://www.w3.org/2000/svg" viewBox="0 0 333 128"><defs><style>.cls-1{opacity:0.17;}.cls-2{fill:#f28f47;}.cls-3{fill:none;stroke:#e6e6e6;}.cls-4{isolation:isolate;}</style></defs><g id="사각형_1" data-name="사각형 1" class="cls-1"><rect class="cls-2" x="-0.15" y="0.47" width="333.31" height="127.06" rx="54"/><rect class="cls-3" x="0.35" y="0.97" width="332.31" height="126.06" rx="53.5"/></g><g class="cls-4"><path class="cls-2" d="M127.37,73.65a18.15,18.15,0,0,0,4.21-1.2v6.49c-2.24,1.12-6.28,1.77-9.8,1.77H106V74.13h3.09v-21H106.3V46.56h23.9v6.58h-2.83Zm-11.1.48h4v-21h-4ZM140.78,45.7V82.43h-7.27V45.7Z"/><path class="cls-2" d="M149.38,46.56h21.11v11c0,14.71-8.81,23.09-21.11,23.14v-6.8c6,0,10.58-2.62,12.69-8.17H149.38V59.16h13.89V53.1H149.38Zm37.75,19.61h-4.3V82.43h-7.26V45.7h7.26V59.12h4.3Z"/><path class="cls-2" d="M213.67,74.34h14.87v6.8H191.39v-6.8h14.88V66.21h7.4Zm-21.55-5.8V61.66c7.31,0,14.11-6.37,15.44-16.09l7.4,1.17a26.3,26.3,0,0,1-1.94,7l15.52,9-3.74,5.94-15.05-9.25A22.06,22.06,0,0,1,192.12,68.54Z"/></g></svg>