<svg id="Layer_1" data-name="Layer 1" xmlns="http://www.w3.org/2000/svg" viewBox="0 0 333 128"><defs><style>.cls-1{opacity:0.17;}.cls-2{fill:#f28f47;}.cls-3{fill:none;stroke:#e6e6e6;}.cls-4{isolation:isolate;}</style></defs><g id="사각형_1" data-name="사각형 1" class="cls-1"><rect class="cls-2" x="-0.27" y="0.47" width="333.31" height="127.06" rx="54"/><rect class="cls-3" x="0.23" y="0.97" width="332.31" height="126.06" rx="53.5"/></g><g class="cls-4"><path class="cls-2" d="M120.8,48.34v6.8H83.65v-6.8Zm-1.68-4.9H85.33V36.77h5.59v-9.5H85.71V20.56h33v6.71h-5.21v9.5h5.59ZM98.23,36.77h8v-9.5h-8Z"/><path class="cls-2" d="M142.26,28.69V25.81H127.42V20.13h22V34H134.69V36.9h9a25.39,25.39,0,0,0,8.47-1.2v5.59a25.1,25.1,0,0,1-8.77,1.29H127.51V28.69ZM136.15,50h25.54v6.41H128.76V44.9h7.39Zm29.33-22.15v7.06h-4.3V47h-7.27V19.7h7.27v8.17Z"/><path class="cls-2" d="M186.12,35.31,197,50.45l-5.89,4.21-7.57-11c-3.1,7-7.83,11-13.46,11V47.22c5.89-.68,10-11.43,10.06-26.78l7.4.25A71,71,0,0,1,186.12,35.31ZM205.25,19.7V56.43H198V19.7Z"/><path class="cls-2" d="M212.78,48.34h37.15v6.8H212.78Zm.73-5.2V36.26c7.31,0,14.1-6.84,15.44-16.69l7.39,1.17a26.92,26.92,0,0,1-2,7.26L250,37.42l-3.82,5.89L231.1,33.68C226.84,39.44,220.52,43.1,213.51,43.14Z"/></g><g class="cls-4"><path class="cls-2" d="M105.71,99.65a18.15,18.15,0,0,0,4.21-1.2v6.49c-2.23,1.12-6.28,1.77-9.8,1.77H84.38v-6.58h3.1v-21H84.64V72.56h23.91v6.58h-2.84Zm-11.1.48h4v-21h-4ZM119.12,71.7v36.73h-7.26V71.7Z"/><path class="cls-2" d="M127.73,72.56h21.11v11c0,14.71-8.82,23.09-21.11,23.14v-6.8c6,0,10.57-2.62,12.68-8.17H127.73V85.16h13.88V79.1H127.73Zm37.75,19.61h-4.3v16.26h-7.27V71.7h7.27V85.12h4.3Z"/><path class="cls-2" d="M186,72.56h7.14v34.15H171.37V72.56h7.14v10.8H186ZM186,100V90h-7.48V100ZM205.21,71.7v36.73h-7.27V71.7Z"/><path class="cls-2" d="M236.21,89.64c0,12.08-4.51,17.5-11.35,17.5s-11.39-5.42-11.39-17.5S218,72.13,224.86,72.13,236.21,77.55,236.21,89.64Zm-7.18,0c0-8.22-1.8-10.84-4.17-10.84s-4.21,2.62-4.21,10.84,1.8,10.83,4.21,10.83S229,97.89,229,89.64Zm22.53,2.53h-4.3v16.26H240V71.7h7.26V85.12h4.3Z"/></g></svg>