<svg id="Layer_1" data-name="Layer 1" xmlns="http://www.w3.org/2000/svg" viewBox="0 0 382 128"><defs><style>.cls-1{opacity:0.2;}.cls-2{fill:#f28f47;}.cls-3{isolation:isolate;}</style></defs><g id="동동이그룹" class="cls-1"><circle id="타원_1" data-name="타원 1" class="cls-2" cx="64" cy="64" r="64"/><ellipse id="타원_2" data-name="타원 2" class="cls-2" cx="127.5" cy="64" rx="63.5" ry="64"/><ellipse id="타원_3" data-name="타원 3" class="cls-2" cx="191" cy="64" rx="63" ry="64"/><ellipse id="타원_4" data-name="타원 4" class="cls-2" cx="254" cy="64" rx="63" ry="64"/><circle id="타원_5" data-name="타원 5" class="cls-2" cx="318" cy="64" r="64"/></g><g class="cls-3"><path class="cls-2" d="M34.47,73.26a31.45,31.45,0,0,0,5.14-.42,16,16,0,0,0,4.14-1.17V78a15,15,0,0,1-4.31,1.24,35,35,0,0,1-5.48.44H20.06V46.34H40.93v6.43H27.28V73.26Zm22.26-7.77h-4.2V81.37h-7.1V45.5h7.1V58.6h4.2Z"/><path class="cls-2" d="M97.21,70.36H60.93V64.82H97.21Zm-27,5.38H95.53v5.63H63V72h7.22ZM95,56.5H70.12v1.77H95.41V63.1H63.15v-11H88.06V50.33h-25V45.5H95Z"/><path class="cls-2" d="M110.23,64.63a15.17,15.17,0,0,1-6.8,1.7V60a8.54,8.54,0,0,0,5.69-2.56,10,10,0,0,0,2.75-5.51h-7.94v-6h22.85v6h-7.73a15.43,15.43,0,0,1-.58,3l9.65,6L124.47,66l-9-5.71A16.51,16.51,0,0,1,110.23,64.63Zm-5.37,3.47h31.83V81.79h-7.22v-7.6H104.86Zm36-9.58h-4.2v8.32H129.6V45.5h7.09v6.22h4.2Z"/><path class="cls-2" d="M166.77,66.92v1.89h12.51V81.37H147.19V68.81h12.52V66.92H145.09V61.54h36.29v5.38Zm12.76-7H146.94V54.57h5.5V50.83h-5.12V45.5h31.83v5.33H174v3.74h5.5ZM172.27,74H154.21v2.14h18.06ZM159.5,54.57H167V50.83H159.5Z"/><path class="cls-2" d="M207.46,65.41a14.6,14.6,0,0,1-6.93,2.18V61a8.27,8.27,0,0,0,4.87-2.46,14.47,14.47,0,0,0,3.36-5.5A21.92,21.92,0,0,0,210,45.67l7.14.42a24.94,24.94,0,0,1-1.38,8.36l10,7.93-4.37,4.83-8.49-7A18.91,18.91,0,0,1,207.46,65.41ZM236,75v6.34H203.39V68.81h7.22V75Zm-7.6-18.36h-6.47V50.16h6.47V45.5h7.1V72.09h-7.1Z"/><path class="cls-2" d="M256.79,67.13a35.78,35.78,0,0,1-4.93.34h-8.53V45.92h16v5.59h-9.45V54h9v5.25h-9v2.6h2.36a33.09,33.09,0,0,0,4.62-.31,16.75,16.75,0,0,0,3.65-.87v5.51A15.36,15.36,0,0,1,256.79,67.13Zm-11.57,2.48H278.4V81.79h-7V75.45H245.22ZM278.4,45.5V68.35h-6.64V59.44h-3V68h-6.55V45.67h6.55V53h3V45.5Z"/><path class="cls-2" d="M300.83,49.83h8v6.46H285.54V49.83h8V45.37h7.27Zm1.87,9.38a9.59,9.59,0,0,1,3.63,4,13.68,13.68,0,0,1,0,11.47,9.59,9.59,0,0,1-3.63,4,11.25,11.25,0,0,1-11.05,0,9.59,9.59,0,0,1-3.63-4,13.68,13.68,0,0,1,0-11.47,9.59,9.59,0,0,1,3.63-4,11.25,11.25,0,0,1,11.05,0Zm-2.84,13.42a7.52,7.52,0,0,0,0-7.39,3.3,3.3,0,0,0-5.38,0,7.59,7.59,0,0,0,0,7.39,3.3,3.3,0,0,0,5.38,0Zm22.81-7.14h-4.2V81.37h-7.1V45.5h7.1V58.6h4.2Z"/><path class="cls-2" d="M348.92,56a29,29,0,0,1-2.54,12.56,19,19,0,0,1-7.21,8.21,20.34,20.34,0,0,1-10.92,2.88V73q6.44,0,9.92-4.54T341.65,56V52.81h-13.4V46.34h20.67Zm12.64,25.33h-7.1V45.5h7.1Z"/></g></svg>