<svg id="Layer_1" data-name="Layer 1" xmlns="http://www.w3.org/2000/svg" viewBox="0 0 101.11 101.43"><defs><style>.cls-1{fill:#fff;}.cls-2{fill:#2e2727;}</style></defs><g id="그룹_17" data-name="그룹 17"><circle id="타원_6" data-name="타원 6" class="cls-1" cx="50.11" cy="50.43" r="47"/><path id="Icon_awesome-arrow-alt-circle-up" data-name="Icon awesome-arrow-alt-circle-up" class="cls-2" d="M101.11,50.87A50.56,50.56,0,1,1,50.56.31a50.56,50.56,0,0,1,50.55,50.56ZM41.59,27.22V50.87H27.13a2.45,2.45,0,0,0-1.73,4.18l23.42,23.3a2.42,2.42,0,0,0,3.43,0h0l23.44-23.3A2.45,2.45,0,0,0,74,50.87H59.53V27.22a2.47,2.47,0,0,0-2.45-2.45H44A2.45,2.45,0,0,0,41.59,27.22Z"/></g></svg>