<svg id="Layer_1" data-name="Layer 1" xmlns="http://www.w3.org/2000/svg" viewBox="0 0 74.44 74.44"><defs><style>.cls-1{fill:#f28f47;}</style></defs><g id="Icon_ionic-ios-arrow-dropright" data-name="Icon ionic-ios-arrow-dropright"><path id="패스_3" data-name="패스 3" class="cls-1" d="M17.82,45.32a3.46,3.46,0,0,1,0-4.88L35,23.37a3.45,3.45,0,0,1,4.76-.11L56.58,40.08A3.45,3.45,0,0,1,51.76,45l0,0L37.2,30.67,22.69,45.32a3.4,3.4,0,0,1-4.83,0Z"/><path id="패스_4" data-name="패스 4" class="cls-1" d="M37.22,74.44A37.22,37.22,0,1,0,0,37.22H0A37.22,37.22,0,0,0,37.21,74.44Zm0-5.73a31.51,31.51,0,1,1,22.31-9.28l-.05,0a31.23,31.23,0,0,1-22.26,9.23Z"/></g></svg>