<svg id="Layer_1" data-name="Layer 1" xmlns="http://www.w3.org/2000/svg" viewBox="0 0 333 128"><defs><style>.cls-1{opacity:0.17;}.cls-2{fill:#f28f47;}.cls-3{fill:none;stroke:#e6e6e6;}.cls-4{isolation:isolate;}</style></defs><g id="사각형_1" data-name="사각형 1" class="cls-1"><rect class="cls-2" x="-0.15" y="0.47" width="333.31" height="127.06" rx="54"/><rect class="cls-3" x="0.35" y="0.97" width="332.31" height="126.06" rx="53.5"/></g><g class="cls-4"><path class="cls-2" d="M55,53.37c0-5.81,4.73-9.67,11.78-9.67s11.78,3.86,11.78,9.67-4.73,9.68-11.78,9.68S55,59.22,55,53.37ZM90.17,72.59c0,6.11-7.22,8.21-16.34,8.21s-16.34-2.1-16.34-8.21,7.22-8.21,16.34-8.21S90.17,66.48,90.17,72.59ZM62.22,53.37c0,2.32,1.76,3.78,4.56,3.78s4.56-1.46,4.56-3.78-1.77-3.78-4.56-3.78S62.22,51.05,62.22,53.37ZM82.34,72.59c0-1.72-3.78-2.41-8.51-2.41s-8.51.69-8.51,2.41S69.1,75,73.83,75,82.34,74.35,82.34,72.59ZM94.13,49.76v7.05h-4.3v7H82.56V43.65h7.27v6.11Z"/><path class="cls-2" d="M135.54,79.08H98.38V72.29h37.16Zm-2-27.82H107.84v9.25h26.1v6.71H100.4V44.51h33.11Z"/><path class="cls-2" d="M151.57,72.46a28,28,0,0,0,8.56-1.24v6.1a28.34,28.34,0,0,1-9.2,1.33h-8.86V58.49h8.64V50.7h-8.64V44.51h15.35V64.59h-8.6v7.87Zm10.37-28.64h6.7V79.73h-6.7V64.34h-3V57.46h3Zm16-.17V80.37h-6.8V43.65Z"/><path class="cls-2" d="M235.34,79.08H198.19V72.29h37.15Zm-2-27.82H207.65v9.25h26.1v6.71H200.21V44.51h33.11Z"/><path class="cls-2" d="M250.65,64.77h-8.78V51.87h9.72V49.59h-9.72V44.08h16.34V57h-9.67v2.28H251a25.39,25.39,0,0,0,8.47-1.2v5.42A26,26,0,0,1,250.65,64.77ZM278,73.36c0,5.55-7.53,7.44-17.16,7.44s-17.16-1.89-17.16-7.44,7.53-7.43,17.16-7.43S278,67.82,278,73.36Zm-7.66,0c0-1.41-4.3-1.93-9.5-1.93s-9.5.52-9.5,1.93,4.3,1.94,9.5,1.94S270.38,74.83,270.38,73.36Zm-2.45-8.77h-6.71V43.82h6.71v6.54H271V43.65h6.8V65.88H271v-9h-3.05Z"/></g></svg>