<svg id="Layer_1" data-name="Layer 1" xmlns="http://www.w3.org/2000/svg" viewBox="0 0 382 128"><defs><style>.cls-1{opacity:0.33;}.cls-2{fill:#fff;}.cls-3{isolation:isolate;}</style></defs><g id="동동이그룹" class="cls-1"><circle id="타원_1" data-name="타원 1" class="cls-2" cx="64" cy="64" r="64"/><ellipse id="타원_2" data-name="타원 2" class="cls-2" cx="127.5" cy="64" rx="63.5" ry="64"/><ellipse id="타원_3" data-name="타원 3" class="cls-2" cx="191" cy="64" rx="63" ry="64"/><ellipse id="타원_4" data-name="타원 4" class="cls-2" cx="254" cy="64" rx="63" ry="64"/><circle id="타원_5" data-name="타원 5" class="cls-2" cx="318" cy="64" r="64"/></g><g class="cls-3"><path class="cls-2" d="M117.13,60.76l12.14,16.9-6.57,4.7-8.45-12.24a23.79,23.79,0,0,1-6.46,9.07,13.41,13.41,0,0,1-8.57,3.22V74.06q3.27-.39,5.81-4.25a31.22,31.22,0,0,0,4-10.54,72,72,0,0,0,1.44-15.12l8.25.29A79.28,79.28,0,0,1,117.13,60.76Zm21.36-17.42v41h-8.11v-41Z"/><path class="cls-2" d="M155.19,65.2a17.45,17.45,0,0,1-7.77,1.94V59.85a9.72,9.72,0,0,0,6.5-2.93,11.34,11.34,0,0,0,3.14-6.29H148V43.82H174.1v6.81h-8.83A17,17,0,0,1,164.6,54l11,6.86-4.18,5.91-10.22-6.53A18.9,18.9,0,0,1,155.19,65.2Zm-6.14,4h36.38V84.81h-8.25V76.12H149.05Zm41.18-10.94h-4.8v9.5h-8.11V43.34h8.11v7.1h4.8Z"/><path class="cls-2" d="M213.37,48.28h9.12v7.39H195.9V48.28h9.16V43.19h8.31ZM215.5,59a10.86,10.86,0,0,1,4.16,4.56,15.62,15.62,0,0,1,0,13.1,10.86,10.86,0,0,1-4.16,4.56,12.82,12.82,0,0,1-12.62,0,10.84,10.84,0,0,1-4.15-4.56,15.62,15.62,0,0,1,0-13.1A10.84,10.84,0,0,1,202.88,59a12.82,12.82,0,0,1,12.62,0Zm-3.24,15.33a7.2,7.2,0,0,0,1.11-4.22,7.2,7.2,0,0,0-1.11-4.22,3.76,3.76,0,0,0-6.14,0,7.2,7.2,0,0,0-1.1,4.22,7.2,7.2,0,0,0,1.1,4.22,3.76,3.76,0,0,0,6.14,0Zm26.07-8.16h-4.8V84.33h-8.11v-41h8.11v15h4.8Z"/><path class="cls-2" d="M268.33,55.38a33,33,0,0,1-2.91,14.36,21.63,21.63,0,0,1-8.23,9.38,23.29,23.29,0,0,1-12.48,3.29V74.73q7.35,0,11.33-5.19t4-14.16V51.69H244.71V44.3h23.62Zm14.45,28.95h-8.12v-41h8.12Z"/></g></svg>