<svg id="Layer_1" data-name="Layer 1" xmlns="http://www.w3.org/2000/svg" viewBox="0 0 294 98"><defs><style>.cls-1{opacity:0.2;}.cls-2{fill:#f28f47;}.cls-3{isolation:isolate;}</style></defs><g id="동동이그룹" class="cls-1"><circle id="타원_1" data-name="타원 1" class="cls-2" cx="48.95" cy="49" r="49.03"/><circle id="타원_2" data-name="타원 2" class="cls-2" cx="97.97" cy="49" r="49.03"/><circle id="타원_3" data-name="타원 3" class="cls-2" cx="147" cy="49" r="49.03"/><circle id="타원_4" data-name="타원 4" class="cls-2" cx="196.03" cy="49" r="49.03"/><circle id="타원_5" data-name="타원 5" class="cls-2" cx="245.05" cy="49" r="49.03"/></g><g class="cls-3"><path class="cls-2" d="M159.49,42c0,3.66-1.76,6.8-7.91,13.16l-5,5.2h13.63V67H135.11V62.52L146.59,50.7c4.21-4.34,5.2-6.62,5.2-8.6,0-2.58-1.42-4.3-4.81-4.3-3.19,0-4.91,2.58-4.91,5.24h-7.69c0-6.88,5.2-12,12.6-12C154.84,31,159.49,35.65,159.49,42Z"/></g></svg>