<svg id="Layer_1" data-name="Layer 1" xmlns="http://www.w3.org/2000/svg" viewBox="0 0 382 128"><defs><style>.cls-1{opacity:0.33;}.cls-2{fill:#fff;}.cls-3{isolation:isolate;}</style></defs><g id="동동이그룹" class="cls-1"><circle id="타원_1" data-name="타원 1" class="cls-2" cx="64" cy="64" r="64"/><ellipse id="타원_2" data-name="타원 2" class="cls-2" cx="127.5" cy="64" rx="63.5" ry="64"/><ellipse id="타원_3" data-name="타원 3" class="cls-2" cx="191" cy="64" rx="63" ry="64"/><ellipse id="타원_4" data-name="타원 4" class="cls-2" cx="254" cy="64" rx="63" ry="64"/><circle id="타원_5" data-name="타원 5" class="cls-2" cx="318" cy="64" r="64"/></g><g class="cls-3"><path class="cls-2" d="M125.19,46.36V82.23h-6.64v-16h-3V81.6H109V77.36L104.23,80l-4.62-8.4q-3.19,8.7-10.12,9V73.62q2.69-.37,4.28-5.69a53.49,53.49,0,0,0,1.68-14.3H90.12V47.2h17v6.43h-5c-.06,3.22-.22,6.14-.5,8.77L109,75.13V46.53h6.55v13h3V46.36Z"/><path class="cls-2" d="M146.48,66.39H131.57v-5h8.48V59h7v2.4q6.3,0,9.15-1v4.91C154.11,66,150.88,66.39,146.48,66.39Zm-3.36-9.07a17.23,17.23,0,0,1-4.91,2.14,23.79,23.79,0,0,1-6,.8v-5a14.3,14.3,0,0,0,4.37-.77,7.34,7.34,0,0,0,3-1.91h-6.76V47.66h7.22V45.35h7.23v2.31h7.22v4.92h-7.14a3,3,0,0,1-.38.75l8.36,2.1-1.76,4.83ZM140.64,78h25.12v4.2H133.67V73.07h24.7V71.81H133.59V67.65h31.75v9.12h-24.7ZM169.45,52v6.46h-4.11v8h-7.1v-20h7.1V52Z"/><path class="cls-2" d="M195,60.81a9.36,9.36,0,0,1-4,3.32,15.89,15.89,0,0,1-12,0,9.36,9.36,0,0,1-4-3.32,9.3,9.3,0,0,1,0-9.91,9.29,9.29,0,0,1,4-3.32,15.77,15.77,0,0,1,12,0,9.29,9.29,0,0,1,4,3.32,9.3,9.3,0,0,1,0,9.91Zm9.45,7.71q4.41,1.91,4.41,6.11c0,2.8-1.47,4.83-4.41,6.11s-6.86,1.91-11.76,1.91-8.82-.64-11.76-1.91-4.41-3.31-4.41-6.11,1.47-4.84,4.41-6.11,6.86-1.92,11.76-1.92S201.5,67.24,204.44,68.52Zm-22.66-10a5.72,5.72,0,0,0,6.43,0,3.77,3.77,0,0,0,0-5.42,5.76,5.76,0,0,0-6.43,0,3.77,3.77,0,0,0,0,5.42Zm17.07,17.85c1.57-.38,2.36-1,2.36-1.78s-.8-1.38-2.38-1.77a32.35,32.35,0,0,0-12.3,0c-1.59.39-2.38,1-2.38,1.77s.79,1.4,2.36,1.78a33.68,33.68,0,0,0,12.34,0Zm2.69-19.21V54.34h-3.95l-.42-6.05h4.37V46.36h7V66.1h-7V63.24h-4.37l.42-6Z"/><path class="cls-2" d="M231.78,50.69h8v6.46H216.49V50.69h8V46.23h7.26Zm1.87,9.38a9.59,9.59,0,0,1,3.63,4,13.68,13.68,0,0,1,0,11.47,9.59,9.59,0,0,1-3.63,4,11.25,11.25,0,0,1-11.05,0,9.59,9.59,0,0,1-3.63-4,13.68,13.68,0,0,1,0-11.47,9.59,9.59,0,0,1,3.63-4,11.25,11.25,0,0,1,11.05,0Zm-2.83,13.42a7.59,7.59,0,0,0,0-7.39,3.3,3.3,0,0,0-5.38,0,7.52,7.52,0,0,0,0,7.39,3.3,3.3,0,0,0,5.38,0Zm22.8-7.14h-4.2V82.23h-7.1V46.36h7.1v13.1h4.2Z"/><path class="cls-2" d="M279.87,56.9a29,29,0,0,1-2.54,12.56,18.89,18.89,0,0,1-7.2,8.21,20.36,20.36,0,0,1-10.92,2.88V73.83q6.42,0,9.91-4.54t3.49-12.39V53.67h-13.4V47.2h20.66Zm12.64,25.33h-7.09V46.36h7.09Z"/></g></svg>