<svg id="Layer_1" data-name="Layer 1" xmlns="http://www.w3.org/2000/svg" viewBox="0 0 333 128"><defs><style>.cls-1{opacity:0.17;}.cls-2{fill:#f28f47;}.cls-3{fill:none;stroke:#e6e6e6;}.cls-4{isolation:isolate;}</style></defs><g id="사각형_1" data-name="사각형 1" class="cls-1"><rect class="cls-2" x="-0.15" y="0.47" width="333.31" height="127.06" rx="54"/><rect class="cls-3" x="0.35" y="0.97" width="332.31" height="126.06" rx="53.5"/></g><g class="cls-4"><path class="cls-2" d="M121.65,67.76H99.24V46.31h7.1V51h8.21V46.31h7.1Zm-13.76,8.3h25.54V82.6H100.49V69.91h7.4Zm6.66-14.36V56.88h-8.21V61.7Zm22.66-8.39v7.06h-4.3V73.05h-7.26V45.88h7.26v7.43Z"/><path class="cls-2" d="M192.34,74.51v6.8H155.19v-6.8h11.95V60.15h7.52V74.51Zm-9.59-21H157.12V46.74h33.2v24.2h-7.57Z"/><path class="cls-2" d="M235.38,74.77v6.54H198.23V74.77Zm-1.2-19.43H199.43V49h13.63V45.4h7.49V49h13.63ZM216.8,56.63c9.29,0,16.13,2.19,16.13,7.69S226.09,72,216.8,72s-16.12-2.19-16.12-7.7S207.52,56.63,216.8,56.63Zm0,5.84c-5,0-8.68.52-8.68,1.85s3.65,1.85,8.68,1.85,8.69-.51,8.69-1.85S221.84,62.47,216.8,62.47Z"/></g></svg>