<svg id="Layer_1" data-name="Layer 1" xmlns="http://www.w3.org/2000/svg" viewBox="0 0 294 98"><defs><style>.cls-1{opacity:0.2;}.cls-2{fill:#f28f47;}.cls-3{isolation:isolate;}</style></defs><g id="동동이그룹" class="cls-1"><circle id="타원_1" data-name="타원 1" class="cls-2" cx="48.95" cy="49" r="49.03"/><circle id="타원_2" data-name="타원 2" class="cls-2" cx="97.97" cy="49" r="49.03"/><circle id="타원_3" data-name="타원 3" class="cls-2" cx="147" cy="49" r="49.03"/><circle id="타원_4" data-name="타원 4" class="cls-2" cx="196.03" cy="49" r="49.03"/><circle id="타원_5" data-name="타원 5" class="cls-2" cx="245.05" cy="49" r="49.03"/></g><g class="cls-3"><path class="cls-2" d="M159.32,41.11a7.6,7.6,0,0,1-5.9,7.52,8.05,8.05,0,0,1,6.84,7.83c0,6.75-5.72,11-13,11-7.7,0-12.47-4.29-13-11.05h7.69c.3,2.8,2.07,4.48,5.34,4.48s5.37-1.77,5.37-4.35c0-2.92-2.45-4.47-6.11-4.47h-3.48V45.67h3.48c3.19,0,5.08-1.72,5.08-4.39s-1.72-4.17-4.65-4.17-4.47,2.45-4.47,5h-7.69c0-6.67,5-11.48,12.21-11.48S159.32,34.83,159.32,41.11Z"/></g></svg>