<svg id="Layer_1" data-name="Layer 1" xmlns="http://www.w3.org/2000/svg" viewBox="0 0 382 128"><defs><style>.cls-1{opacity:0.2;}.cls-2{fill:#f28f47;}.cls-3{isolation:isolate;}</style></defs><g id="동동이그룹" class="cls-1"><ellipse id="타원_1" data-name="타원 1" class="cls-2" cx="64.5" cy="64" rx="64.5" ry="64"/><circle id="타원_2" data-name="타원 2" class="cls-2" cx="128" cy="64" r="64"/><ellipse id="타원_3" data-name="타원 3" class="cls-2" cx="192" cy="64" rx="63" ry="64"/><ellipse id="타원_4" data-name="타원 4" class="cls-2" cx="255" cy="64" rx="63" ry="64"/><ellipse id="타원_5" data-name="타원 5" class="cls-2" cx="318.5" cy="64" rx="63.5" ry="64"/></g><g class="cls-3"><path class="cls-2" d="M113.57,55.14H89.38v-6h8.4V45.73h7.31v3.36h8.48ZM105,73.91a37.49,37.49,0,0,0,5.17-.35,15.37,15.37,0,0,0,4.07-1.08v6.26a15.39,15.39,0,0,1-4.07,1.07,37.12,37.12,0,0,1-5.33.36H89.59V73.91h8.32V70.85a10.28,10.28,0,0,1-5.3-2.46,6.61,6.61,0,0,1,1.08-10.21,14.15,14.15,0,0,1,7.83-2,14.15,14.15,0,0,1,7.83,2,6.23,6.23,0,0,1,3,5.53,6.1,6.1,0,0,1-2,4.72,10.67,10.67,0,0,1-5.4,2.46Zm-6.51-8.8a7.85,7.85,0,0,0,3.07.49,7.76,7.76,0,0,0,3.06-.49c.76-.32,1.14-.79,1.14-1.4a1.54,1.54,0,0,0-1.14-1.41,8,8,0,0,0-3.06-.48,8.06,8.06,0,0,0-3.07.48,1.44,1.44,0,0,0,0,2.81Zm29,.53h-4.12V81.85h-7.1V46h7.1V58.75h4.12Z"/><path class="cls-2" d="M153.35,67.4V69q12.84.7,12.85,6.59,0,6.68-16.38,6.68t-16.38-6.68q0-5.88,12.85-6.59V67.4H131.68V62H168V67.4Zm12.76-7H133.52V55.05H139V51.32H133.9V46h31.84v5.34h-5.13v3.73h5.5ZM149.82,74.08q-8.87,0-8.86,1.51c0,.56.76,1,2.29,1.18a49.17,49.17,0,0,0,6.57.33,49.17,49.17,0,0,0,6.57-.33c1.53-.23,2.29-.62,2.29-1.18Q158.68,74.07,149.82,74.08Zm-3.74-19h7.48V51.32h-7.48Z"/><path class="cls-2" d="M195.68,60.14a9.42,9.42,0,0,1-4.11,3.23,17,17,0,0,1-12.18,0,9.39,9.39,0,0,1-4.12-3.23,8.3,8.3,0,0,1-1.47-4.88,8.21,8.21,0,0,1,1.47-4.85,9.61,9.61,0,0,1,4.12-3.23,16.57,16.57,0,0,1,12.18,0,9.64,9.64,0,0,1,4.11,3.23,8.21,8.21,0,0,1,1.47,4.85A8.3,8.3,0,0,1,195.68,60.14Zm5.8,5.67h7v16H176.78v-16h7v2.35h17.73Zm-19.36-8a6.36,6.36,0,0,0,6.72,0,3.24,3.24,0,0,0,0-5.13,6.36,6.36,0,0,0-6.72,0,3.24,3.24,0,0,0,0,5.13Zm19.36,18.39V73.66H183.75v2.56Zm7-30.24V64.55h-7.1V46Z"/><path class="cls-2" d="M232.43,50.31h8.15v6.47H217V50.31h8.19v-4.5h7.26Zm1.93,9.38a9.61,9.61,0,0,1,3.68,4,13.47,13.47,0,0,1,0,11.46,9.52,9.52,0,0,1-3.68,4,11.48,11.48,0,0,1-11.17,0,9.56,9.56,0,0,1-3.67-4,13.47,13.47,0,0,1,0-11.46,9.65,9.65,0,0,1,3.67-4,11.55,11.55,0,0,1,11.17,0Zm-2.81,13.42a7.26,7.26,0,0,0,0-7.39,3.47,3.47,0,0,0-5.54,0,7.26,7.26,0,0,0,0,7.39,3.46,3.46,0,0,0,5.54,0Zm19-27.13V81.85h-7.09V46Z"/><path class="cls-2" d="M280,56.52a29,29,0,0,1-2.54,12.56,18.92,18.92,0,0,1-7.21,8.21,20.36,20.36,0,0,1-10.92,2.88V73.45q6.44,0,9.91-4.54t3.49-12.39V53.29h-13.4V46.82H280Zm12.64,25.33h-7.1V46h7.1Z"/></g></svg>