<svg id="Layer_1" data-name="Layer 1" xmlns="http://www.w3.org/2000/svg" viewBox="0 0 333 128"><defs><style>.cls-1,.cls-3{fill:#f28f47;}.cls-1{opacity:0.17;}.cls-1,.cls-2{isolation:isolate;}</style></defs><rect id="사각형_1" data-name="사각형 1" class="cls-1" x="-0.14" y="0.47" width="333.31" height="127.06" rx="54"/><g class="cls-2"><path class="cls-3" d="M70.93,74.45v6.62H33.78V74.45H48.66V70.32H35.84v-15H61.73v-2.5h-26V46.5H68.91V61.42H43V64H69.34v6.36H56.05v4.13Z"/><path class="cls-3" d="M97.33,45.81H104V81.72H97.33V66H94.15V80.64H77.47V46.5h6.62V57.33h3.44V46.5h6.62V59.14h3.18ZM87.53,74.1V63.83H84.09V74.1Zm25.84-28.46V82.36h-6.79V45.64Z"/><path class="cls-3" d="M157,81.07H119.86V74.41H157Zm-2-19.31H129.07v2.88h26.35V71H121.93V55.66h25.93v-2.8h-26V46.5H155Z"/><path class="cls-3" d="M213.78,65.2H176.62V59.92h37.16Zm-2.15,11.23H185.91v1.33H212v4.6H178.82V72.6h25.71V71.27h-25.8V66.71h32.9Zm-.09-25.59H186.08v2.32H212v5.21H178.86V45.64h32.68Z"/><path class="cls-3" d="M256.82,74.45v6.62H219.67V74.45h14.87V70.32H221.73v-15h25.89v-2.5h-26V46.5H254.8V61.42H228.91V64h26.32v6.36H241.94v4.13Z"/><path class="cls-3" d="M272.86,74.23A27.91,27.91,0,0,0,281.41,73v6.32a28.3,28.3,0,0,1-9.2,1.33h-8.86V46.41h7.1V74.23Zm10.36-28.42h6.71V81.72h-6.71V64.64h-7.44V57.85h7.44Zm16-.17V82.36h-6.8V45.64Z"/></g></svg>