<svg id="Layer_1" data-name="Layer 1" xmlns="http://www.w3.org/2000/svg" viewBox="0 0 333 128"><defs><style>.cls-1,.cls-3{fill:#f28f47;}.cls-1{opacity:0.17;}.cls-1,.cls-2{isolation:isolate;}</style></defs><rect id="사각형_1" data-name="사각형 1" class="cls-1" x="-0.15" y="0.47" width="333.31" height="127.06" rx="54"/><g class="cls-2"><path class="cls-3" d="M71.16,60.38l10.5,13.85-5.77,4.25-7.22-9.93C65.7,75,61.1,78.61,55.6,78.65V71.34c5.37-.6,8.9-8.38,9.16-20.16H56.63V44.51H79.76v6.67H72.07A59.59,59.59,0,0,1,71.16,60.38Zm23,3.74h-4.3V80.37H82.56V43.65h7.27V57.07h4.3Z"/><path class="cls-3" d="M135.54,72.29v6.79H98.38V72.29h12.3V66.36H118v5.93Zm-9.34-9.2H100.4V56.34h25.8V51.26H100.4V44.51h33.11V69.45H126.2Z"/><path class="cls-3" d="M178.58,72.29v6.79H141.43V72.29H156.3V66.36H143.45V44.51h33.11V66.36H163.7v5.93ZM150.67,59.6h18.66V51.31H150.67Z"/><path class="cls-3" d="M221.41,61.28H199V44.08h7.05v3h8.3v-3h7.06Zm-14,14.24h25.63v4.85H200.29V69.62h25.24V68.2H200.21V63.35h32.46V74.1H207.43Zm6.92-19.87v-3h-8.3v3ZM237,48.81v6.62h-4.3v6.63H225.4V43.65h7.27v5.16Z"/><path class="cls-3" d="M257.22,72.12a25.3,25.3,0,0,0,9.51-1.68v6.45c-2.24,1.12-6.19,1.76-9.72,1.76H242.48V58.27h13.67V51.05H242.39V44.51h21V64.72H249.7v7.4Zm22.79-8h-4.3V80.37h-7.26V43.65h7.26V57.07H280Z"/></g></svg>