<svg id="Layer_1" data-name="Layer 1" xmlns="http://www.w3.org/2000/svg" viewBox="0 0 382 128"><defs><style>.cls-1{opacity:0.2;}.cls-2{fill:#f28f47;}.cls-3{isolation:isolate;}</style></defs><g id="동동이그룹" class="cls-1"><circle id="타원_1" data-name="타원 1" class="cls-2" cx="64" cy="64" r="64"/><ellipse id="타원_2" data-name="타원 2" class="cls-2" cx="127.5" cy="64" rx="63.5" ry="64"/><ellipse id="타원_3" data-name="타원 3" class="cls-2" cx="191" cy="64" rx="63" ry="64"/><ellipse id="타원_4" data-name="타원 4" class="cls-2" cx="254" cy="64" rx="63" ry="64"/><circle id="타원_5" data-name="타원 5" class="cls-2" cx="318" cy="64" r="64"/></g><g class="cls-3"><path class="cls-2" d="M146.23,45.92V81.79h-6.64v-16h-3V81.16h-6.55V76.83l-5,2.86L120.52,72q-3.18,7.89-10,8.15V73.34q2.59-.28,4.16-4.87a40.13,40.13,0,0,0,1.63-12.14h-5.25V50h5.25v-4.2H123V50h5.21v6.34H123a63.67,63.67,0,0,1-.46,7l7.48,12.1V46.09h6.55v13h3V45.92Z"/><path class="cls-2" d="M188.31,45.92v22h-6.63v-8.4h-3.24v8h-6.55v-4L168,67l-5.54-6a13.87,13.87,0,0,1-4.3,4.74,10.18,10.18,0,0,1-5.61,1.72V60.91a5.21,5.21,0,0,0,3.38-2.08,13.17,13.17,0,0,0,2.33-5.06,30.2,30.2,0,0,0,.84-7.56l6.72.25a34.52,34.52,0,0,1-.88,8.11l7,7.22V46.09h6.55v6.8h3.24v-7ZM155.13,69.19h33.18v13h-7v-7H155.13Z"/><path class="cls-2" d="M210.74,50.25h8v6.46H195.45V50.25h8V45.79h7.27Zm1.87,9.38a9.59,9.59,0,0,1,3.63,4,13.68,13.68,0,0,1,0,11.47,9.59,9.59,0,0,1-3.63,4,11.25,11.25,0,0,1-11.05,0,9.59,9.59,0,0,1-3.63-4,13.68,13.68,0,0,1,0-11.47,9.59,9.59,0,0,1,3.63-4,11.25,11.25,0,0,1,11.05,0Zm-2.84,13.42a7.52,7.52,0,0,0,0-7.39,3.29,3.29,0,0,0-5.37,0,7.52,7.52,0,0,0,0,7.39,3.29,3.29,0,0,0,5.37,0Zm22.81-7.14h-4.2V81.79h-7.1V45.92h7.1V59h4.2Z"/><path class="cls-2" d="M258.83,56.46A29,29,0,0,1,256.29,69a19,19,0,0,1-7.2,8.21,20.36,20.36,0,0,1-10.92,2.88V73.39q6.42,0,9.91-4.54t3.48-12.39V53.23H238.17V46.76h20.66Zm12.64,25.33h-7.1V45.92h7.1Z"/></g></svg>